{
    "asset" : {
        "generator" : "Khronos glTF Blender I/O v1.7.33",
        "version" : "2.0"
    },
    "scene" : 0,
    "scenes" : [
        {
            "name" : "Scene",
            "nodes" : [
                0,
                1
            ]
        }
    ],
    "nodes" : [
        {
            "mesh" : 0,
            "name" : "Texte",
            "rotation" : [
                0.5265507698059082,
                0.09074578434228897,
                -0.04393789917230606,
                0.8441439270973206
            ],
            "translation" : [
                -0.9728837609291077,
                4.04432487487793,
                0
            ]
        },
        {
            "mesh" : 1,
            "name" : "Texte.001",
            "rotation" : [
                0.3385169804096222,
                0,
                0,
                0.9409602880477905
            ],
            "scale" : [
                1.8508379459381104,
                1.8508379459381104,
                1.8508379459381104
            ],
            "translation" : [
                2.9881796836853027,
                2.5501298904418945,
                1.5405116081237793
            ]
        }
    ],
    "materials" : [
        {
            "doubleSided" : true,
            "name" : "Mat\u00e9riau.001",
            "pbrMetallicRoughness" : {
                "baseColorFactor" : [
                    0.7992175817489624,
                    1,
                    0,
                    1
                ],
                "metallicFactor" : 0,
                "roughnessFactor" : 0.5
            }
        },
        {
            "doubleSided" : true,
            "name" : "Mat\u00e9riau",
            "pbrMetallicRoughness" : {
                "baseColorFactor" : [
                    1,
                    0,
                    0,
                    1
                ],
                "metallicFactor" : 0,
                "roughnessFactor" : 0.5
            }
        }
    ],
    "meshes" : [
        {
            "name" : "Texte",
            "primitives" : [
                {
                    "attributes" : {
                        "POSITION" : 0,
                        "NORMAL" : 1,
                        "TEXCOORD_0" : 2
                    },
                    "indices" : 3,
                    "material" : 0
                }
            ]
        },
        {
            "name" : "Texte.001",
            "primitives" : [
                {
                    "attributes" : {
                        "POSITION" : 4,
                        "NORMAL" : 5,
                        "TEXCOORD_0" : 6
                    },
                    "indices" : 7,
                    "material" : 1
                }
            ]
        }
    ],
    "accessors" : [
        {
            "bufferView" : 0,
            "componentType" : 5126,
            "count" : 8716,
            "max" : [
                5.504000186920166,
                0.10000000149011612,
                1.8000000715255737
            ],
            "min" : [
                0,
                -0.10000000149011612,
                -0.800000011920929
            ],
            "type" : "VEC3"
        },
        {
            "bufferView" : 1,
            "componentType" : 5126,
            "count" : 8716,
            "type" : "VEC3"
        },
        {
            "bufferView" : 2,
            "componentType" : 5126,
            "count" : 8716,
            "type" : "VEC2"
        },
        {
            "bufferView" : 3,
            "componentType" : 5123,
            "count" : 16560,
            "type" : "SCALAR"
        },
        {
            "bufferView" : 4,
            "componentType" : 5126,
            "count" : 1816,
            "max" : [
                2.125999927520752,
                0.25,
                0.20000000298023224
            ],
            "min" : [
                0,
                -0.25,
                -0.800000011920929
            ],
            "type" : "VEC3"
        },
        {
            "bufferView" : 5,
            "componentType" : 5126,
            "count" : 1816,
            "type" : "VEC3"
        },
        {
            "bufferView" : 6,
            "componentType" : 5126,
            "count" : 1816,
            "type" : "VEC2"
        },
        {
            "bufferView" : 7,
            "componentType" : 5123,
            "count" : 3600,
            "type" : "SCALAR"
        }
    ],
    "bufferViews" : [
        {
            "buffer" : 0,
            "byteLength" : 104592,
            "byteOffset" : 0
        },
        {
            "buffer" : 0,
            "byteLength" : 104592,
            "byteOffset" : 104592
        },
        {
            "buffer" : 0,
            "byteLength" : 69728,
            "byteOffset" : 209184
        },
        {
            "buffer" : 0,
            "byteLength" : 33120,
            "byteOffset" : 278912
        },
        {
            "buffer" : 0,
            "byteLength" : 21792,
            "byteOffset" : 312032
        },
        {
            "buffer" : 0,
            "byteLength" : 21792,
            "byteOffset" : 333824
        },
        {
            "buffer" : 0,
            "byteLength" : 14528,
            "byteOffset" : 355616
        },
        {
            "buffer" : 0,
            "byteLength" : 7200,
            "byteOffset" : 370144
        }
    ],
    "buffers" : [
        {
            "byteLength" : 377344,
            "uri" : "data:application/octet-stream;base64,"
        }
    ]
}
